<svg width="64" height="64" viewBox="0 0 64 64" fill="none" xmlns="http://www.w3.org/2000/svg">
<circle cx="32" cy="32" r="32" fill="#F95A2C"/>
<path d="M31.9267 47.3333C31.78 47.3333 31.6333 47.3333 31.4866 47.1827H31.3399C28.1123 45.5254 20.4836 40.855 17.8429 33.4727C17.4028 32.1168 16.3759 26.5424 19.6034 23.0772C21.5106 20.968 23.271 20.6667 24.4447 20.6667C27.2321 20.6667 30.1662 22.3239 31.9267 24.7345C33.6872 22.1732 36.3279 20.6667 39.4087 20.6667C40.5823 20.6667 42.3428 20.968 44.3967 23.0772C47.6242 26.5424 46.5973 32.2674 46.1571 33.4727C43.5164 41.0056 35.741 45.5254 32.6602 47.1827C32.3668 47.3333 32.0734 47.3333 31.9267 47.3333Z" fill="white"/>
</svg>
